<svg width="102" height="102" viewBox="0 0 102 102" fill="none" xmlns="http://www.w3.org/2000/svg">
<rect width="102" height="102" rx="25" fill="#E5E5FF"/>
<path d="M27 57C26.4323 57.0019 25.8757 56.8428 25.3948 56.5409C24.914 56.2391 24.5287 55.8071 24.2836 55.295C24.0386 54.7829 23.9439 54.2118 24.0105 53.648C24.0771 53.0842 24.3023 52.5509 24.66 52.11L54.36 21.51C54.5828 21.2528 54.8864 21.0791 55.2209 21.0172C55.5555 20.9553 55.9012 21.009 56.2012 21.1695C56.5012 21.33 56.7377 21.5877 56.872 21.9003C57.0062 22.213 57.0302 22.5619 56.94 22.89L51.18 40.95C51.0101 41.4046 50.9531 41.8936 51.0138 42.375C51.0744 42.8565 51.251 43.316 51.5282 43.7143C51.8055 44.1125 52.1753 44.4375 52.6058 44.6615C53.0363 44.8854 53.5147 45.0016 54 45H75C75.5677 44.9981 76.1243 45.1573 76.6051 45.4591C77.0859 45.7609 77.4713 46.1929 77.7163 46.705C77.9614 47.2171 78.0561 47.7882 77.9895 48.352C77.9229 48.9158 77.6976 49.4491 77.34 49.89L47.64 80.49C47.4172 80.7472 47.1136 80.9209 46.779 80.9828C46.4445 81.0447 46.0988 80.991 45.7988 80.8305C45.4988 80.67 45.2622 80.4123 45.128 80.0997C44.9937 79.787 44.9697 79.4381 45.06 79.11L50.82 61.05C50.9898 60.5954 51.0469 60.1064 50.9862 59.625C50.9255 59.1435 50.749 58.684 50.4717 58.2857C50.1944 57.8875 49.8247 57.5625 49.3942 57.3385C48.9636 57.1146 48.4852 56.9984 48 57H27Z" stroke="#0000FF" stroke-width="4" stroke-linecap="round" stroke-linejoin="round"/>
</svg>
