<svg width="102" height="102" viewBox="0 0 102 102" fill="none" xmlns="http://www.w3.org/2000/svg">
<rect width="102" height="102" rx="25" fill="#E5E5FF"/>
<path d="M52 84.3332C70.4095 84.3332 85.3333 69.4093 85.3333 50.9998C85.3333 32.5903 70.4095 17.6665 52 17.6665C33.5905 17.6665 18.6666 32.5903 18.6666 50.9998C18.6666 69.4093 33.5905 84.3332 52 84.3332Z" stroke="#0000FF" stroke-width="4" stroke-linecap="round" stroke-linejoin="round"/>
<path d="M52 71C63.0457 71 72 62.0457 72 51C72 39.9543 63.0457 31 52 31C40.9543 31 32 39.9543 32 51C32 62.0457 40.9543 71 52 71Z" stroke="#0000FF" stroke-width="4" stroke-linecap="round" stroke-linejoin="round"/>
<path d="M52 57.6668C55.6819 57.6668 58.6667 54.6821 58.6667 51.0002C58.6667 47.3183 55.6819 44.3335 52 44.3335C48.3181 44.3335 45.3334 47.3183 45.3334 51.0002C45.3334 54.6821 48.3181 57.6668 52 57.6668Z" stroke="#0000FF" stroke-width="4" stroke-linecap="round" stroke-linejoin="round"/>
</svg>
