<svg width="56" height="56" viewBox="0 0 56 56" fill="none" xmlns="http://www.w3.org/2000/svg">
<rect width="56" height="56" rx="16" fill="#AB5DFF"/>
<path d="M28 22.3333C35.0416 22.3333 40.75 20.4305 40.75 18.0833C40.75 15.736 35.0416 13.8333 28 13.8333C20.9584 13.8333 15.25 15.736 15.25 18.0833C15.25 20.4305 20.9584 22.3333 28 22.3333Z" stroke="white" stroke-width="2" stroke-linecap="round" stroke-linejoin="round"/>
<path d="M15.25 18.0833V37.9166C15.25 39.0438 16.5933 40.1248 18.9844 40.9218C21.3755 41.7188 24.6185 42.1666 28 42.1666C31.3815 42.1666 34.6245 41.7188 37.0156 40.9218C39.4067 40.1248 40.75 39.0438 40.75 37.9166V18.0833" stroke="white" stroke-width="2" stroke-linecap="round" stroke-linejoin="round"/>
<path d="M15.25 28C15.25 29.1272 16.5933 30.2082 18.9844 31.0052C21.3755 31.8022 24.6185 32.25 28 32.25C31.3815 32.25 34.6245 31.8022 37.0156 31.0052C39.4067 30.2082 40.75 29.1272 40.75 28" stroke="white" stroke-width="2" stroke-linecap="round" stroke-linejoin="round"/>
</svg>
