<svg width="102" height="102" viewBox="0 0 102 102" fill="none" xmlns="http://www.w3.org/2000/svg">
<rect width="102" height="102" rx="25" fill="#E5E5FF"/>
<path d="M60.475 30.9752C60.7893 31.2898 61.1818 31.5149 61.612 31.6272C62.0422 31.7396 62.4946 31.7352 62.9225 31.6144C63.3505 31.4937 63.7385 31.261 64.0465 30.9403C64.3546 30.6197 64.5715 30.2227 64.675 29.7902C64.9345 28.71 65.4773 27.7184 66.2474 26.9177C67.0176 26.1169 67.9872 25.5359 69.0566 25.2345C70.1259 24.9331 71.2562 24.9222 72.3312 25.2029C73.4061 25.4836 74.3868 26.0457 75.1723 26.8315C75.9577 27.6172 76.5196 28.5981 76.7999 29.6731C77.0802 30.7481 77.0689 31.8785 76.7672 32.9477C76.4654 34.0169 75.8841 34.9864 75.0831 35.7563C74.2821 36.5261 73.2904 37.0686 72.21 37.3277C71.7776 37.4312 71.3806 37.6482 71.0599 37.9562C70.7393 38.2643 70.5066 38.6523 70.3858 39.0802C70.2651 39.5082 70.2607 39.9606 70.373 40.3908C70.4854 40.821 70.7105 41.2135 71.025 41.5277L75.2325 45.7327C75.793 46.2931 76.2375 46.9584 76.5408 47.6907C76.8441 48.4229 77.0002 49.2077 77.0002 50.0002C77.0002 50.7928 76.8441 51.5776 76.5408 52.3098C76.2375 53.042 75.793 53.7073 75.2325 54.2677L71.025 58.4752C70.7108 58.7898 70.3183 59.0149 69.8881 59.1272C69.4579 59.2396 69.0055 59.2352 68.5775 59.1144C68.1496 58.9937 67.7616 58.761 67.4535 58.4403C67.1455 58.1197 66.9285 57.7227 66.825 57.2902C66.5655 56.21 66.0227 55.2184 65.2526 54.4177C64.4825 53.6169 63.5128 53.0359 62.4435 52.7345C61.3742 52.4331 60.2438 52.4222 59.1689 52.7029C58.0939 52.9836 57.1132 53.5457 56.3278 54.3315C55.5423 55.1172 54.9805 56.0981 54.7002 57.1731C54.4198 58.2481 54.4311 59.3785 54.7329 60.4477C55.0346 61.5169 55.6159 62.4864 56.4169 63.2563C57.2179 64.0261 58.2097 64.5686 59.29 64.8277C59.7225 64.9312 60.1195 65.1482 60.4401 65.4562C60.7608 65.7643 60.9935 66.1523 61.1142 66.5802C61.235 67.0082 61.2394 67.4606 61.127 67.8908C61.0147 68.321 60.7896 68.7135 60.475 69.0277L56.2675 73.2327C55.7071 73.7932 55.0418 74.2377 54.3096 74.541C53.5774 74.8443 52.7926 75.0004 52 75.0004C51.2075 75.0004 50.4227 74.8443 49.6905 74.541C48.9582 74.2377 48.2929 73.7932 47.7325 73.2327L43.525 69.0252C43.2108 68.7107 42.8183 68.4856 42.3881 68.3732C41.9579 68.2609 41.5055 68.2653 41.0775 68.386C40.6496 68.5068 40.2616 68.7395 39.9535 69.0601C39.6455 69.3808 39.4285 69.7778 39.325 70.2102C39.0655 71.2905 38.5227 72.282 37.7526 73.0828C36.9825 73.8835 36.0128 74.4645 34.9435 74.7659C33.8742 75.0673 32.7438 75.0782 31.6689 74.7975C30.5939 74.5169 29.6132 73.9547 28.8278 73.169C28.0423 72.3833 27.4805 71.4024 27.2002 70.3273C26.9198 69.2523 26.9311 68.122 27.2329 67.0527C27.5346 65.9835 28.1159 65.0141 28.9169 64.2442C29.7179 63.4743 30.7097 62.9319 31.79 62.6727C32.2225 62.5692 32.6195 62.3523 32.9401 62.0442C33.2608 61.7362 33.4935 61.3482 33.6142 60.9202C33.735 60.4923 33.7394 60.0399 33.627 59.6097C33.5147 59.1795 33.2896 58.787 32.975 58.4727L28.7675 54.2677C28.2071 53.7073 27.7625 53.042 27.4592 52.3098C27.1559 51.5776 26.9998 50.7928 26.9998 50.0002C26.9998 49.2077 27.1559 48.4229 27.4592 47.6907C27.7625 46.9584 28.2071 46.2931 28.7675 45.7327L32.975 41.5252C33.2893 41.2106 33.6818 40.9856 34.112 40.8732C34.5422 40.7609 34.9946 40.7653 35.4225 40.886C35.8505 41.0068 36.2385 41.2395 36.5465 41.5601C36.8546 41.8808 37.0715 42.2778 37.175 42.7102C37.4345 43.7905 37.9773 44.782 38.7474 45.5828C39.5176 46.3835 40.4872 46.9645 41.5566 47.2659C42.6259 47.5673 43.7562 47.5782 44.8312 47.2975C45.9061 47.0169 46.8868 46.4547 47.6723 45.669C48.4577 44.8833 49.0196 43.9024 49.2999 42.8273C49.5802 41.7523 49.5689 40.622 49.2672 39.5527C48.9654 38.4835 48.3841 37.5141 47.5831 36.7442C46.7821 35.9743 45.7904 35.4319 44.71 35.1727C44.2776 35.0692 43.8806 34.8523 43.5599 34.5442C43.2393 34.2362 43.0066 33.8482 42.8858 33.4202C42.7651 32.9923 42.7607 32.5399 42.873 32.1097C42.9854 31.6794 43.2105 31.287 43.525 30.9727L47.7325 26.7677C48.2929 26.2073 48.9582 25.7627 49.6905 25.4594C50.4227 25.1561 51.2075 25 52 25C52.7926 25 53.5774 25.1561 54.3096 25.4594C55.0418 25.7627 55.7071 26.2073 56.2675 26.7677L60.475 30.9752Z" stroke="#0000FF" stroke-width="4" stroke-linecap="round" stroke-linejoin="round"/>
</svg>
