<svg width="102" height="102" viewBox="0 0 102 102" fill="none" xmlns="http://www.w3.org/2000/svg">
<rect width="102" height="102" rx="25" fill="#E5E5FF"/>
<path d="M61.6666 75.75V70.25C61.6666 67.3326 60.5428 64.5347 58.5425 62.4718C56.5421 60.4089 53.829 59.25 51 59.25H35C32.171 59.25 29.4579 60.4089 27.4575 62.4718C25.4571 64.5347 24.3333 67.3326 24.3333 70.25V75.75" stroke="#0000FF" stroke-width="4" stroke-linecap="round" stroke-linejoin="round"/>
<path d="M43 48.25C48.891 48.25 53.6666 43.3251 53.6666 37.25C53.6666 31.1749 48.891 26.25 43 26.25C37.1089 26.25 32.3333 31.1749 32.3333 37.25C32.3333 43.3251 37.1089 48.25 43 48.25Z" stroke="#0000FF" stroke-width="4" stroke-linecap="round" stroke-linejoin="round"/>
<path d="M77.6667 75.7499V70.2499C77.6649 67.8127 76.8783 65.445 75.4303 63.5188C73.9824 61.5925 71.955 60.2167 69.6667 59.6074" stroke="#0000FF" stroke-width="4" stroke-linecap="round" stroke-linejoin="round"/>
<path d="M61.6667 26.6074C63.9611 27.2132 65.9948 28.5893 67.4471 30.5188C68.8993 32.4482 69.6876 34.8212 69.6876 37.2637C69.6876 39.7061 68.8993 42.0791 67.4471 44.0086C65.9948 45.938 63.9611 47.3141 61.6667 47.9199" stroke="#0000FF" stroke-width="4" stroke-linecap="round" stroke-linejoin="round"/>
</svg>
