<svg width="24" height="24" viewBox="0 0 24 24" fill="none" xmlns="http://www.w3.org/2000/svg">
<path d="M14.536 21.6856C14.574 21.7803 14.6401 21.861 14.7253 21.9171C14.8106 21.9732 14.9109 22.0018 15.0129 21.9992C15.1149 21.9966 15.2136 21.9628 15.2959 21.9025C15.3781 21.8421 15.44 21.7581 15.473 21.6616L21.973 2.66157C22.0051 2.57296 22.0112 2.47707 21.9907 2.38512C21.9702 2.29317 21.9239 2.20896 21.8573 2.14235C21.7907 2.07573 21.7064 2.02946 21.6145 2.00896C21.5225 1.98846 21.4267 1.99456 21.338 2.02657L2.33805 8.52657C2.24155 8.55966 2.15747 8.62149 2.09712 8.70374C2.03677 8.78599 2.00302 8.88474 2.00041 8.98673C1.9978 9.08871 2.02644 9.18906 2.08251 9.27429C2.13857 9.35953 2.21937 9.42558 2.31405 9.46357L10.2441 12.6436C10.4947 12.7439 10.7225 12.894 10.9136 13.0848C11.1047 13.2756 11.2552 13.5031 11.356 13.7536L14.536 21.6856Z" stroke="white" stroke-width="2" stroke-linecap="round" stroke-linejoin="round"/>
<path d="M21.8539 2.14746L10.9139 13.0865" stroke="white" stroke-width="2" stroke-linecap="round" stroke-linejoin="round"/>
</svg>
